# xmcd
#
# Track frame offsets:
#	150
#	18812
#	36425
#	54987
#	74337
#	91087
#	107712
#	123437
#	136250
#	156237
#	175887
#	190287
#	203587
#	230150
#	248387
#	266300
#	284275
#
# Disc length: 4027
#
# Revision: 3
# Processed by: cddbd v1.5.1PL0 Copyright (c) Steve Scherf et al.
# Submitted via: DiscPlay 4.0.3
# Normalized: r1:TDELIM( - ),TSWAP
#
DISCID=e30fb911
DTITLE=Various Artist - Schmuse Songs Vol 6 CD 3
DYEAR=1900
DGENRE=
TTITLE0=Beverley Craven - Woman To Woman
TTITLE1=Youssou N'Dour - Undecided
TTITLE2=Whigfield - Close to You (Radio Edit)
TTITLE3=Bill Withers - lean On Me
TTITLE4=Cyndi Lauper - I'M Gonna Be Strong
TTITLE5=Billy Paul - Your Song
TTITLE6=10 CC - I'M Not In Love (Accoustic Sessions'95)
TTITLE7=Aretha Franklin - Walk On By
TTITLE8=Beniece Williams - That's What Friends Are For
TTITLE9=Gladys Nighyt and The Pips - I (Who Have Nothing)
TTITLE10=Wild Cherry - Hold On
TTITLE11=Colin Blunstone - I Don't Believe In Miracles
TTITLE12=Tina Charles - Amazing Grace
TTITLE13=Peacock Palace - Henry's Song
TTITLE14=Willie Nelson - A Whiter Shade Of Pale
TTITLE15=Shabba Banks - Slow And Sexy
TTITLE16=Yell 4 You - Nothing's Gonna Change My love to You
EXTD=
EXTT0=
EXTT1=
EXTT2=
EXTT3=
EXTT4=
EXTT5=
EXTT6=
EXTT7=
EXTT8=
EXTT9=
EXTT10=
EXTT11=
EXTT12=
EXTT13=
EXTT14=
EXTT15=
EXTT16=
PLAYORDER=
